<svg width="213" height="97" viewBox="0 0 213 97" fill="none" xmlns="http://www.w3.org/2000/svg">
<rect x="0.5" y="0.614258" width="212" height="96" rx="5" fill="#252B93"/>
<g clip-path="url(#clip0_1928_25422)">
<path d="M134.807 53.0636C134.459 53.0341 134.108 53.0341 133.759 53.0636C132.69 53.2516 132.205 52.67 132.163 51.5538C132.116 50.2143 131.584 49.6797 130.35 49.7913C129.129 49.9021 127.902 49.9021 126.681 49.7913C125.567 49.7002 124.93 50.1408 124.744 51.3775C124.543 52.7258 123.869 53.2428 122.648 53.0666C121.776 52.9823 120.9 52.9764 120.027 53.0489C119.168 53.0813 118.929 52.7904 119.309 51.8416C121.317 46.8186 123.29 41.7808 125.271 36.746C125.623 35.962 125.932 35.1547 126.196 34.3284C126.684 32.5189 127.887 31.9784 129.383 31.9197C132.863 31.7581 132.91 31.7523 133.657 35.4447C134.76 40.8907 135.767 46.3603 136.867 51.8093C137.072 52.8169 136.867 53.1518 135.971 53.0431C135.583 53.0268 135.195 53.0337 134.807 53.0636ZM129.566 38.0825H129.304C128.492 40.3767 127.687 42.6767 126.862 44.968C126.621 45.6406 126.948 45.7288 127.407 45.7288C128.277 45.7288 129.15 45.7111 130.028 45.7288C130.662 45.7493 130.945 45.3851 130.829 44.7418C130.431 42.5063 129.991 40.2944 129.569 38.0825H129.566Z" fill="#FEFEFE"/>
<path d="M110.208 53.3573C108.615 53.4366 107.113 52.899 105.585 52.5524C104.912 52.3996 104.624 52.0824 104.862 51.2276C105.142 50.2171 104.862 48.8952 105.494 48.1638C106.259 47.2826 107.103 48.5339 107.957 48.6573C109.472 48.8717 110.96 49.1537 112.475 48.6573C113.169 48.434 113.651 48.0257 113.801 47.2326C113.883 46.8458 113.845 46.4389 113.692 46.0802C113.538 45.7214 113.28 45.4324 112.96 45.2616C112.014 44.6741 111.013 44.1659 110.053 43.5872C108.846 42.8867 107.852 41.7998 107.197 40.4647C106.295 38.5818 107.027 35.471 108.704 34.0022C111.906 31.1999 115.517 31.1823 119.246 32.2398C119.411 32.2906 119.559 32.3924 119.674 32.5335C119.936 32.8801 119.532 36.3346 119.204 36.6254C118.877 36.9162 118.539 36.6019 118.23 36.5138C116.615 36.0643 115.012 35.6737 113.358 36.2964C112.692 36.549 112.147 36.9485 112.048 37.7651C111.959 38.5171 112.54 38.8491 112.996 39.2074C114.621 40.4823 116.547 41.1432 118.012 42.8117C119.726 44.7593 119.291 48.2549 118.059 49.8852C115.989 52.6611 113.193 53.2691 110.208 53.3573Z" fill="#FEFEFE"/>
<path d="M85.7946 41.0203C86.4917 42.489 86.7249 44.1369 87.2254 46.1344C88.2265 43.2733 89.1044 40.7735 89.977 38.2708C90.5929 36.5083 91.2402 34.7458 91.8115 32.9481C92.0578 32.1638 92.4404 31.8818 93.1584 31.9141C94.2486 31.964 95.3388 31.9464 96.4289 31.9141C97.2518 31.8965 97.4117 32.2078 97.0867 33.0715C95.3702 37.5452 93.6799 42.0337 91.9923 46.5192C91.366 48.1789 90.7344 49.8386 90.1579 51.5129C89.7884 52.5792 89.2747 53.2548 88.1295 53.061C87.5193 53.0033 86.9061 52.9974 86.2951 53.0433C84.2484 53.0433 84.2144 53.0433 83.6745 50.9049C82.2882 45.5851 80.881 40.2683 79.7725 34.8516C81.9502 36.2762 83.8658 38.0152 85.2102 40.4592C85.3763 40.6808 85.5737 40.8704 85.7946 41.0203Z" fill="#FEFEFE"/>
<path d="M99.0524 53.0638C96.327 53.0638 96.3715 53.0638 96.8458 50.0617C97.7351 44.4257 98.5894 38.7779 99.4088 33.1184C99.5241 32.3106 99.8595 31.9728 100.486 31.9434C101.618 31.8994 102.753 31.9434 103.893 31.9229C104.569 31.9229 104.626 32.243 104.514 32.948C103.594 38.776 102.726 44.6157 101.828 50.4466C101.408 53.0638 101.393 53.0638 99.0524 53.0638Z" fill="#FEFEFE"/>
<path d="M85.7947 41.0198C85.5745 40.8726 85.3771 40.686 85.2104 40.4676C83.866 38.0236 81.9503 36.2846 79.7726 34.8511C78.2396 33.5939 76.3082 33.3236 74.5 32.2074C75.5168 31.6728 76.4628 32.0517 77.3276 31.9783C79.1928 31.8006 81.0688 31.8213 82.9304 32.04C84.1647 32.2015 84.6941 33.1004 84.9273 34.2166C85.3624 36.2934 85.6663 38.4025 86.0018 40.5058C86.0254 40.6703 85.8681 40.8553 85.7947 41.0198Z" fill="#F4F4F4"/>
</g>
<path d="M108.9 59.7544C108.9 60.5584 108.754 61.2306 108.461 61.771C108.168 62.3081 107.743 62.7134 107.187 62.9868C106.633 63.257 105.961 63.3921 105.17 63.3921H103.231V56.2534H105.385C106.111 56.2534 106.736 56.3869 107.26 56.6538C107.784 56.9175 108.188 57.3097 108.471 57.8306C108.757 58.3481 108.9 58.9894 108.9 59.7544ZM108.026 59.7837C108.026 59.1424 107.919 58.6134 107.704 58.1968C107.493 57.7801 107.18 57.4709 106.767 57.269C106.356 57.064 105.854 56.9614 105.258 56.9614H104.062V62.6792H105.072C106.055 62.6792 106.793 62.4367 107.284 61.9517C107.779 61.4666 108.026 60.744 108.026 59.7837ZM112.676 57.9429C113.132 57.9429 113.522 58.0438 113.848 58.2456C114.173 58.4474 114.422 58.7306 114.595 59.0952C114.767 59.4565 114.854 59.8797 114.854 60.3647V60.8677H111.157C111.167 61.4959 111.323 61.9744 111.626 62.3032C111.929 62.632 112.355 62.7964 112.905 62.7964C113.244 62.7964 113.543 62.7655 113.804 62.7036C114.064 62.6418 114.334 62.5506 114.614 62.4302V63.1431C114.344 63.2635 114.076 63.3514 113.809 63.4067C113.545 63.4621 113.232 63.4897 112.871 63.4897C112.357 63.4897 111.908 63.3856 111.523 63.1772C111.143 62.9657 110.846 62.6564 110.635 62.2495C110.423 61.8426 110.317 61.3446 110.317 60.7554C110.317 60.1792 110.413 59.6812 110.605 59.2612C110.801 58.8381 111.074 58.5125 111.426 58.2847C111.781 58.0568 112.197 57.9429 112.676 57.9429ZM112.666 58.6069C112.233 58.6069 111.888 58.7485 111.631 59.0317C111.374 59.3149 111.221 59.7104 111.172 60.2183H114.004C114.001 59.8993 113.95 59.6193 113.853 59.3784C113.758 59.1343 113.613 58.9455 113.418 58.812C113.223 58.6753 112.972 58.6069 112.666 58.6069ZM114.019 55.731V55.8286C113.953 55.923 113.864 56.0369 113.75 56.1704C113.639 56.3006 113.516 56.439 113.379 56.5854C113.242 56.7287 113.104 56.8654 112.964 56.9956C112.827 57.1258 112.7 57.2381 112.583 57.3325H112.041V57.2153C112.145 57.0916 112.259 56.9435 112.383 56.771C112.507 56.5952 112.627 56.4162 112.744 56.2339C112.861 56.0483 112.959 55.8807 113.037 55.731H114.019ZM117.291 55.7944V57.6938C117.291 57.9119 117.285 58.1235 117.271 58.3286C117.262 58.5337 117.254 58.6932 117.247 58.8071H117.291C117.438 58.5662 117.649 58.3628 117.926 58.1968C118.202 58.0308 118.556 57.9478 118.985 57.9478C119.656 57.9478 120.19 58.1805 120.587 58.646C120.987 59.1082 121.188 59.7967 121.188 60.7114C121.188 61.3136 121.096 61.8215 120.914 62.2349C120.732 62.6483 120.475 62.9608 120.143 63.1724C119.811 63.384 119.418 63.4897 118.966 63.4897C118.543 63.4897 118.194 63.4116 117.921 63.2554C117.651 63.0959 117.442 62.9022 117.296 62.6743H117.232L117.066 63.3921H116.48V55.7944H117.291ZM118.854 58.6265C118.466 58.6265 118.159 58.703 117.931 58.856C117.703 59.0057 117.538 59.2336 117.438 59.5396C117.34 59.8423 117.291 60.2264 117.291 60.6919V60.7358C117.291 61.4097 117.403 61.9256 117.628 62.2837C117.853 62.6385 118.261 62.8159 118.854 62.8159C119.352 62.8159 119.724 62.6336 119.972 62.269C120.222 61.9045 120.348 61.3836 120.348 60.7065C120.348 60.0164 120.224 59.4972 119.977 59.1489C119.732 58.8006 119.358 58.6265 118.854 58.6265ZM123.664 58.0405V63.3921H122.854V58.0405H123.664ZM123.269 56.0386C123.402 56.0386 123.516 56.0825 123.61 56.1704C123.708 56.255 123.757 56.3885 123.757 56.5708C123.757 56.7498 123.708 56.8833 123.61 56.9712C123.516 57.0591 123.402 57.103 123.269 57.103C123.129 57.103 123.011 57.0591 122.917 56.9712C122.826 56.8833 122.78 56.7498 122.78 56.5708C122.78 56.3885 122.826 56.255 122.917 56.1704C123.011 56.0825 123.129 56.0386 123.269 56.0386ZM127.361 62.8257C127.495 62.8257 127.632 62.8143 127.771 62.7915C127.911 62.7687 128.025 62.741 128.113 62.7085V63.3384C128.019 63.3807 127.887 63.4165 127.718 63.4458C127.552 63.4751 127.389 63.4897 127.229 63.4897C126.946 63.4897 126.689 63.4409 126.458 63.3433C126.227 63.2424 126.041 63.0731 125.901 62.8354C125.765 62.5978 125.696 62.269 125.696 61.8491V58.6753H124.935V58.2798L125.701 57.9624L126.023 56.8003H126.512V58.0405H128.079V58.6753H126.512V61.8247C126.512 62.16 126.588 62.4106 126.741 62.5767C126.897 62.7427 127.104 62.8257 127.361 62.8257ZM134.062 60.7065C134.062 61.146 134.005 61.5382 133.891 61.8833C133.777 62.2284 133.612 62.5197 133.397 62.7573C133.183 62.995 132.922 63.1772 132.616 63.3042C132.313 63.4279 131.97 63.4897 131.586 63.4897C131.228 63.4897 130.899 63.4279 130.6 63.3042C130.303 63.1772 130.046 62.995 129.828 62.7573C129.613 62.5197 129.446 62.2284 129.325 61.8833C129.208 61.5382 129.149 61.146 129.149 60.7065C129.149 60.1206 129.249 59.6226 129.447 59.2124C129.646 58.799 129.929 58.4849 130.297 58.27C130.668 58.0519 131.109 57.9429 131.62 57.9429C132.108 57.9429 132.535 58.0519 132.899 58.27C133.267 58.4881 133.552 58.8039 133.754 59.2173C133.959 59.6274 134.062 60.1239 134.062 60.7065ZM129.989 60.7065C129.989 61.1362 130.046 61.509 130.16 61.8247C130.274 62.1405 130.45 62.3846 130.688 62.5571C130.925 62.7297 131.231 62.8159 131.605 62.8159C131.977 62.8159 132.281 62.7297 132.519 62.5571C132.759 62.3846 132.937 62.1405 133.051 61.8247C133.165 61.509 133.222 61.1362 133.222 60.7065C133.222 60.2801 133.165 59.9123 133.051 59.603C132.937 59.2905 132.761 59.0496 132.523 58.8804C132.286 58.7111 131.978 58.6265 131.601 58.6265C131.044 58.6265 130.635 58.8104 130.375 59.1782C130.118 59.5461 129.989 60.0555 129.989 60.7065Z" fill="#FBFBFB"/>
<defs>
<clipPath id="clip0_1928_25422">
<rect width="62.4487" height="21.7579" fill="white" transform="translate(74.5 31.6143)"/>
</clipPath>
</defs>
</svg>
